# xmcd CD database file
#
# Track frame offsets:
#	150
#	15976
#	32070
#	47295
#	60542
#	76738
#	90795
#	108512
#	122239
#	134810
#	148797
#	161874
#	178578
#	195646
#	212715
#	224277
#	236112
#	256612
#	270165
#	286708
#	305557
#
# Disc length: 4313 seconds
#
# Revision: 0
# Processed by: cddbd v1.5.1PL2 Copyright (c) Steve Scherf et al.
# Submitted via: CDex 1.51
#
DISCID=1e10d715
DTITLE=Bruno and Marrone -  As 20 mais
DYEAR=1900
DGENRE=Country
TTITLE0=bruno e marrone1
TTITLE1=bruno e marrone2
TTITLE2=bruno e marrone3
TTITLE3=bruno e marrone4
TTITLE4=bruno e marrone5
TTITLE5=bruno e marrone6
TTITLE6=bruno e marrone7
TTITLE7=bruno e marrone8
TTITLE8=bruno e marrone9
TTITLE9=bruno e marrone10
TTITLE10=bruno e marrone11
TTITLE11=bruno e marrone12
TTITLE12=bruno e marrone13
TTITLE13=bruno e marrone14
TTITLE14=bruno e marrone15
TTITLE15=bruno e marrone16
TTITLE16=bruno e marrone17
TTITLE17=bruno e marrone18
TTITLE18=bruno e marrone19
TTITLE19=bruno e marrone20
TTITLE20=br e marronwe1
EXTD=
EXTT0=
EXTT1=
EXTT2=
EXTT3=
EXTT4=
EXTT5=
EXTT6=
EXTT7=
EXTT8=
EXTT9=
EXTT10=
EXTT11=
EXTT12=
EXTT13=
EXTT14=
EXTT15=
EXTT16=
EXTT17=
EXTT18=
EXTT19=
EXTT20=
PLAYORDER=
